<?xml version="1.0" encoding="UTF-8"?> <svg xmlns="http://www.w3.org/2000/svg" width="76.241" height="104.307" viewBox="0 0 76.241 104.307"><path id="Trazado_24461" data-name="Trazado 24461" d="M48.212,14.146a.856.856,0,0,1,.254.608.74.74,0,0,1-.068.321.7.7,0,0,1-.186.269.856.856,0,0,1-.59.254.975.975,0,0,1-.321-.068.767.767,0,0,1-.27-.186.591.591,0,0,1-.185-.269.73.73,0,0,1-.068-.321.856.856,0,0,1,.253-.608.73.73,0,0,1,.27-.169.831.831,0,0,1,.91.169Zm-6.123-.169a.894.894,0,0,0-.269.169.913.913,0,0,0-.236.608,1.055,1.055,0,0,0,.05.321.759.759,0,0,0,.186.269.7.7,0,0,0,.269.186,1.2,1.2,0,0,0,.338.068.859.859,0,0,0,.591-.254,1.5,1.5,0,0,0,.185-.269,1.086,1.086,0,0,0,.068-.321.934.934,0,0,0-.253-.608.855.855,0,0,0-.929-.169Zm38.25,89.244a8.263,8.263,0,0,1-5.006-1.561,10.487,10.487,0,0,0-11.789,0,8.806,8.806,0,0,1-10.012,0,10.487,10.487,0,0,0-11.789,0,8.822,8.822,0,0,1-10.022,0,9.931,9.931,0,0,0-5.9-1.813,9.926,9.926,0,0,0-5.9,1.813,8.288,8.288,0,0,1-5.014,1.561.843.843,0,0,0,0,1.687,9.935,9.935,0,0,0,5.9-1.813,8.28,8.28,0,0,1,5.013-1.561,8.288,8.288,0,0,1,5.014,1.561,10.5,10.5,0,0,0,11.8,0,8.808,8.808,0,0,1,10.013,0,10.488,10.488,0,0,0,11.788,0,8.808,8.808,0,0,1,10.013,0,9.92,9.92,0,0,0,5.894,1.813.843.843,0,0,0,0-1.687ZM39.165,25.332V29.67a.843.843,0,0,1-.844.843H29.676a.843.843,0,0,1-.843-.843V25.332a.843.843,0,0,1,.843-.843h8.646a.843.843,0,0,1,.844.843Zm-1.687.843H30.519v2.651h6.959Zm14.467,4.338H43.3a.843.843,0,0,1-.844-.843V25.332a.843.843,0,0,1,.844-.843h8.646a.843.843,0,0,1,.844.843V29.67a.843.843,0,0,1-.845.843ZM51.1,26.175H44.143v2.651H51.1ZM84.99,49.755c-.144.267-14.118,26.235-17.463,42.559l.038,0c.138-.023.284-.038.426-.056a11.615,11.615,0,0,1,1.239-.086c.072,0,.133-.015.206-.015a9.915,9.915,0,0,1,5.893,1.813,8.26,8.26,0,0,0,5.005,1.561.846.846,0,1,1,0,1.693,9.917,9.917,0,0,1-5.894-1.813,8.263,8.263,0,0,0-5.006-1.561c-.076,0-.141.007-.215.009-.343.006-.666.029-.974.064-.136.016-.274.03-.4.051a7.294,7.294,0,0,0-.935.219c-.116.035-.232.07-.341.11a7.447,7.447,0,0,0-.878.382q-.354.18-.687.377l-.143.085q-.216.13-.431.264a10.485,10.485,0,0,1-11.788,0,8.811,8.811,0,0,0-10.013,0,10.5,10.5,0,0,1-11.8,0l-.059-.036c-.324-.2-.643-.393-.974-.572-.044-.024-.091-.045-.136-.069a7.642,7.642,0,0,0-1.037-.45c-.079-.028-.161-.053-.243-.078a6.922,6.922,0,0,0-.983-.233c-.121-.02-.254-.033-.382-.048-.311-.037-.637-.06-.981-.066-.075,0-.141-.009-.219-.009a8.281,8.281,0,0,0-5.013,1.561,9.927,9.927,0,0,1-5.9,1.813.846.846,0,1,1,0-1.693,8.268,8.268,0,0,0,5-1.559,9.958,9.958,0,0,1,5.911-1.815c.075,0,.137.014.211.015a11.589,11.589,0,0,1,1.229.086c.145.017.293.033.433.056l.018,0C24.372,75.989,10.4,50.023,10.255,49.756a.844.844,0,0,1,.264-1.1,87.174,87.174,0,0,1,11.235-6.552l2.087-16.725H20.867a.843.843,0,0,1-.816-1.055L21.738,17.8a.842.842,0,0,1,.816-.633H35.783V11.491a.843.843,0,0,1,.843-.844h5.83v-7.8A.843.843,0,0,1,43.3,2h8.646a.843.843,0,0,1,.844.843v7.8h5.83a.843.843,0,0,1,.843.844v5.677H72.692a.843.843,0,0,1,.816.633L75.2,24.327a.843.843,0,0,1-.816,1.055H71.4L73.49,42.106a87.159,87.159,0,0,1,11.235,6.552A.844.844,0,0,1,84.99,49.755ZM44.143,10.645H51.1V3.687H44.143ZM37.47,17.166h20.3V12.333H37.47Zm9.309,19.521A66.851,66.851,0,0,0,22.9,43.418a85.2,85.2,0,0,0-10.8,6.205c2.321,4.365,14.592,27.924,17.44,43.185.057.023.1.051.158.076a10.372,10.372,0,0,1,.97.463l.147.084c.285.161.558.326.82.487l.077.046a8.84,8.84,0,0,0,10.035,0,9.971,9.971,0,0,1,5.033-1.778Zm1.627-1.7c.144.007.289.014.47.025l.27.021c.179.013.355.025.564.044.121.011.261.026.392.038.207.02.41.039.641.065.151.016.319.039.48.059.242.029.48.058.744.094.177.024.369.054.556.082.274.04.545.08.839.128.209.034.432.074.651.112.3.053.6.1.916.165.236.045.485.1.73.147.326.066.649.132.991.206.263.058.537.123.809.186.351.082.7.164,1.069.256.285.071.579.149.873.227.375.1.752.2,1.141.309.309.087.626.181.943.274.4.117.794.237,1.2.366.33.1.666.215,1,.326.417.137.835.279,1.264.429.352.123.708.252,1.068.384.434.158.87.323,1.314.494q.556.215,1.121.444.678.274,1.369.569.578.245,1.165.507c.231.1.455.193.688.3l-2.072-16.6a.843.843,0,0,1,.837-.948h2.842l-1.252-4.841H58.627l-.008,0H36.627l-.008,0H23.207l-1.252,4.841H24.8a.843.843,0,0,1,.837.948l-2.073,16.6c.234-.106.457-.2.689-.3.391-.174.777-.343,1.161-.505q.7-.3,1.375-.571.562-.227,1.113-.441c.448-.174.888-.339,1.325-.5.356-.13.708-.257,1.056-.379.433-.151.856-.294,1.277-.433.334-.11.665-.219.992-.322.415-.13.819-.252,1.22-.371.311-.092.621-.184.925-.269.4-.112.778-.214,1.159-.315.288-.075.577-.152.858-.223.373-.093.73-.177,1.088-.259.266-.062.533-.125.789-.182.347-.076.677-.144,1.007-.21.241-.049.485-.1.717-.144.323-.061.626-.115.93-.168.214-.038.431-.077.635-.11.3-.048.569-.088.845-.129.186-.027.377-.058.553-.082.263-.036.5-.065.743-.094.161-.02.33-.042.48-.059.231-.026.434-.045.641-.065.131-.013.272-.028.392-.038.208-.019.385-.031.564-.044l.27-.021c.181-.011.327-.019.47-.025L47,34.98c.137-.006.236-.009.329-.011l.094,0,.2,0,.2,0,.094,0c.093,0,.192,0,.329.011l.167.009Zm34.74,14.634a85.27,85.27,0,0,0-10.8-6.205,72.6,72.6,0,0,0-18.58-6.074c-1.219-.214-2.3-.37-3.182-.471-.747-.086-1.365-.138-1.839-.17-.109-.007-.184-.011-.277-.016v55.5a9.966,9.966,0,0,1,5.066,1.779,8.8,8.8,0,0,0,10,0c.4-.25.829-.5,1.28-.733.2-.1.4-.2.614-.294.1-.043.179-.094.281-.134C68.554,77.548,80.826,53.989,83.146,49.624ZM52.228,14.146a.913.913,0,0,0-.237.608,1.066,1.066,0,0,0,.05.321,1.08,1.08,0,0,0,.186.269.832.832,0,0,0,1.2,0,.943.943,0,0,0,.185-.269,1.1,1.1,0,0,0,.068-.321.935.935,0,0,0-.253-.608.9.9,0,0,0-1.2,0ZM56.08,29.67V25.332a.843.843,0,0,1,.844-.843h8.646a.843.843,0,0,1,.843.843V29.67a.843.843,0,0,1-.843.843H56.924a.843.843,0,0,1-.844-.843Zm1.687-.844h6.959V26.175H57.767Z" transform="translate(-9.502 -1.4)" fill="#b1b3b6" stroke="#b1b3b6" stroke-width="1.2"></path></svg> 