<?xml version="1.0" encoding="UTF-8"?>
<svg version="1.1" xmlns="http://www.w3.org/2000/svg" width="103" height="92">
<path d="M0 0 C2.79056795 2.24346976 5.37249137 4.56214588 7.9140625 7.08203125 C10.12625392 9.29328231 10.12625392 9.29328231 14 11 C14 34.43 14 57.86 14 82 C-19.99 82 -53.98 82 -89 82 C-89.226875 70.470625 -89.45375 58.94125 -89.6875 47.0625 C-89.78764404 43.43773682 -89.88778809 39.81297363 -89.9909668 36.07836914 C-90.04064941 31.61218262 -90.04064941 31.61218262 -90.04988098 29.51365662 C-90.06664784 28.06450622 -90.10508381 26.6154986 -90.16133118 25.16734314 C-90.60966706 13.00404875 -90.60966706 13.00404875 -86.68447876 8.11715698 C-83.89026971 5.78785617 -81.11730808 3.8691303 -78 2 C-76.97271286 1.32908829 -75.94542572 0.65817657 -74.88700867 -0.0330658 C-67.9991272 -4.47060867 -60.89729671 -6.95986502 -53 -9 C-52.38511719 -9.1757959 -51.77023438 -9.3515918 -51.13671875 -9.53271484 C-33.61489394 -13.364613 -15.0256123 -9.18036826 0 0 Z M-78 7 C-78.99 8.32 -79.98 9.64 -81 11 C-52.29 11 -23.58 11 6 11 C-16.62319329 -11.62319329 -52.85589981 -12.58085851 -78 7 Z M-85 15 C-85 35.79 -85 56.58 -85 78 C-81.37 78 -77.74 78 -74 78 C-74 57.21 -74 36.42 -74 15 C-77.63 15 -81.26 15 -85 15 Z M-70 15 C-70 35.79 -70 56.58 -70 78 C-57.13 78 -44.26 78 -31 78 C-31 57.21 -31 36.42 -31 15 C-43.87 15 -56.74 15 -70 15 Z M-27 15 C-27 16.32 -27 17.64 -27 19 C-25.02 19 -23.04 19 -21 19 C-21 17.68 -21 16.36 -21 15 C-22.98 15 -24.96 15 -27 15 Z M-17 15 C-17 35.79 -17 56.58 -17 78 C-8.09 78 0.82 78 10 78 C10 57.21 10 36.42 10 15 C1.09 15 -7.82 15 -17 15 Z M-27 23 C-27 23.66 -27 24.32 -27 25 C-25.02 25 -23.04 25 -21 25 C-21 24.34 -21 23.68 -21 23 C-22.98 23 -24.96 23 -27 23 Z M-27 29 C-27 29.99 -27 30.98 -27 32 C-25.02 32 -23.04 32 -21 32 C-21 31.01 -21 30.02 -21 29 C-22.98 29 -24.96 29 -27 29 Z M-27 36 C-27 36.66 -27 37.32 -27 38 C-25.02 38 -23.04 38 -21 38 C-21 37.34 -21 36.68 -21 36 C-22.98 36 -24.96 36 -27 36 Z M-27 42 C-27 42.99 -27 43.98 -27 45 C-25.02 45 -23.04 45 -21 45 C-21 44.01 -21 43.02 -21 42 C-22.98 42 -24.96 42 -27 42 Z M-27 49 C-27 49.99 -27 50.98 -27 52 C-25.02 52 -23.04 52 -21 52 C-21 51.01 -21 50.02 -21 49 C-22.98 49 -24.96 49 -27 49 Z M-27 56 C-27 56.66 -27 57.32 -27 58 C-25.02 58 -23.04 58 -21 58 C-21 57.34 -21 56.68 -21 56 C-22.98 56 -24.96 56 -27 56 Z M-27 62 C-27 62.99 -27 63.98 -27 65 C-25.02 65 -23.04 65 -21 65 C-21 64.01 -21 63.02 -21 62 C-22.98 62 -24.96 62 -27 62 Z M-27 69 C-27 69.66 -27 70.32 -27 71 C-25.02 71 -23.04 71 -21 71 C-21 70.34 -21 69.68 -21 69 C-22.98 69 -24.96 69 -27 69 Z M-27 75 C-27 75.99 -27 76.98 -27 78 C-25.02 78 -23.04 78 -21 78 C-21 77.01 -21 76.02 -21 75 C-22.98 75 -24.96 75 -27 75 Z " fill="#B0B2B6" transform="translate(89,10)"/>
<path d="M0 0 C9.57 0 19.14 0 29 0 C29 2.64 29 5.28 29 8 C19.43 8 9.86 8 0 8 C0 5.36 0 2.72 0 0 Z " fill="#B0B2B6" transform="translate(51,12)"/>
</svg>
