<?xml version="1.0" encoding="UTF-8"?> <svg xmlns="http://www.w3.org/2000/svg" width="147.569" height="88.015" viewBox="0 0 147.569 88.015"><g id="noun_fuel_tanker_truck_3498140" data-name="noun_fuel tanker truck_3498140" transform="translate(-5.431 -23.417)"><path id="Trazado_24464" data-name="Trazado 24464" d="M87.906,42.221H74.672a1.655,1.655,0,0,0-1.656,1.656V60.341A1.654,1.654,0,0,0,74.672,62H97.279a1.656,1.656,0,0,0,1.439-2.475L89.344,43.059A1.656,1.656,0,0,0,87.906,42.221ZM76.327,58.685V45.532H86.944l7.488,13.153Z" transform="translate(44.304 12.327)" fill="#b1b3b6"></path><path id="Trazado_24465" data-name="Trazado 24465" d="M152.821,74.722c-1.78-3.508-14.108-24.633-14.633-25.532a1.655,1.655,0,0,0-1.429-.821H111a1.655,1.655,0,0,0-1.656,1.656V77.95H83.254V73.417h5.207c17.674,0,17.674-16.468,17.674-21.878s0-21.879-17.674-21.879H65.853c-.017-3.445-2.463-6.243-5.472-6.243h-9.2c-3.01,0-5.457,2.8-5.473,6.243H23.1C5.431,29.66,5.431,46.128,5.431,51.539s0,21.878,17.673,21.878h5.208V77.95H10.154A1.655,1.655,0,0,0,8.5,79.606V95.88a5.783,5.783,0,0,0,5.776,5.778H17.93a13.783,13.783,0,0,0,26.058.922,13.784,13.784,0,0,0,26.06-.922h45.643a13.793,13.793,0,0,0,26.389,0h9.264A1.654,1.654,0,0,0,153,100V75.47A1.655,1.655,0,0,0,152.821,74.722ZM25.042,32.971H86.521V70.106H25.042Zm77.782,18.568c0,12.4-3.912,18.015-12.993,18.517V33.021C98.911,33.522,102.824,39.138,102.824,51.539ZM51.185,26.728h9.2c1.165,0,2.146,1.339,2.16,2.932H49.023C49.038,28.069,50.019,26.728,51.185,26.728ZM8.742,51.539c0-12.4,3.912-18.015,12.989-18.519V70.057C12.654,69.553,8.742,63.941,8.742,51.539ZM31.621,73.417H79.943V77.95H31.621Zm-.5,34.7A10.483,10.483,0,1,1,41.611,97.639,10.495,10.495,0,0,1,31.125,108.122Zm25.732,0A10.483,10.483,0,1,1,67.341,97.639,10.5,10.5,0,0,1,56.857,108.122Zm13.759-9.774c.012-.237.035-.469.035-.709A13.787,13.787,0,0,0,43.99,92.7a13.786,13.786,0,0,0-26.659,4.942c0,.24.023.472.035.709H14.275a2.469,2.469,0,0,1-2.465-2.467V81.263h97.539V98.348Zm58.27,9.774a10.483,10.483,0,1,1,10.486-10.483A10.5,10.5,0,0,1,128.886,108.122Zm20.8-9.774h-7.043c.012-.237.035-.469.035-.709a13.8,13.8,0,0,0-27.591,0c0,.24.025.472.035.709h-2.467V51.682h23.148c2.263,3.886,11.859,20.365,13.882,24.194V98.348Z" transform="translate(0 0)" fill="#b1b3b6"></path></g></svg> 