<?xml version="1.0" encoding="UTF-8"?> <svg xmlns="http://www.w3.org/2000/svg" width="145.7" height="74.253" viewBox="0 0 145.7 74.253"><path id="Trazado_24463" data-name="Trazado 24463" d="M149.5,58.519V56.914H117.129a5.585,5.585,0,0,0-10.719,0H90.094A4.018,4.018,0,0,1,86.081,52.9V43.267h1.606a4.014,4.014,0,1,0,0-8.028H80.461V33.633H99.728a3.211,3.211,0,1,0,0-6.422H80.461a3.211,3.211,0,1,0-6.422,0H54.772a3.211,3.211,0,1,0,0,6.422H74.039v1.606H66.814a4.014,4.014,0,1,0,0,8.028h1.606V52.9a4.019,4.019,0,0,1-4.014,4.014H48.088a5.583,5.583,0,0,0-10.715,0H5v1.606H37.111V89.025H5v1.606H37.373a5.583,5.583,0,0,0,10.715,0h8.628a17.98,17.98,0,0,1,8.373,2.545c.236.159,5.868,3.877,12.16,3.877s11.924-3.718,12.16-3.879a17.991,17.991,0,0,1,8.373-2.543h8.627a5.585,5.585,0,0,0,10.719,0H149.5V89.025H117.389V58.519ZM46.744,89.025a4.014,4.014,0,0,1-8.028,0V58.519a4.014,4.014,0,0,1,8.028,0ZM77.25,25.606a1.608,1.608,0,0,1,1.606,1.606H75.644A1.608,1.608,0,0,1,77.25,25.606ZM54.772,32.028a1.606,1.606,0,1,1,0-3.211H99.728a1.606,1.606,0,0,1,0,3.211H54.772Zm24.083,1.606v1.606H75.644V33.633ZM66.814,41.661a2.408,2.408,0,0,1,0-4.817H87.686a2.408,2.408,0,1,1,0,4.817ZM106.15,89.025H97.783a19.567,19.567,0,0,0-9.266,2.815c-.055.035-5.473,3.608-11.268,3.608s-11.213-3.572-11.268-3.606a19.551,19.551,0,0,0-9.266-2.816H48.35V58.519H64.406A5.626,5.626,0,0,0,70.025,52.9V43.267h14.45V52.9a5.626,5.626,0,0,0,5.619,5.619H106.15Zm9.633,0a4.014,4.014,0,0,1-8.028,0V58.519a4.014,4.014,0,1,1,8.028,0Z" transform="translate(-4.4 -23.4)" fill="#b1b3b6" stroke="#b1b3b6" stroke-width="1.2"></path></svg> 