<?xml version="1.0" encoding="UTF-8"?> <svg xmlns="http://www.w3.org/2000/svg" width="75" height="88.72" viewBox="0 0 75 88.72"><g id="Grupo_5756" data-name="Grupo 5756" transform="translate(-764 -1712.875)"><circle id="Elipse_15108" data-name="Elipse 15108" cx="37.5" cy="37.5" r="37.5" transform="translate(764 1720)" fill="#009ddc" opacity="0.07"></circle><g id="noun_trap_1133090" transform="translate(772.002 1713.004)"><path id="Trazado_28100" data-name="Trazado 28100" d="M35.6,7.616,4.471,52.785H30.647a1.2,1.2,0,0,1,1.17,1.44L25.824,82.87l31.442-44.48H31.005a1.2,1.2,0,0,1-1.173-1.426ZM2.2,55.176A1.2,1.2,0,0,1,1.211,53.3L36.894,1.518a1.2,1.2,0,0,1,2.157.909L32.458,36H59.575a1.2,1.2,0,0,1,.976,1.885l-36.1,51.07a1.2,1.2,0,0,1-2.146-.935l6.871-32.845Z" transform="translate(-1 -1)" fill="#009ddc" stroke="#009ddc" stroke-width="0.2"></path></g></g></svg> 