<?xml version="1.0" encoding="UTF-8"?>
<svg version="1.1" xmlns="http://www.w3.org/2000/svg" width="75" height="89">
<path d="M0 0 C3.25898648 1.69093718 6.12871649 3.71926416 9 6 C9.33 5.01 9.66 4.02 10 3 C12.25 2.3125 12.25 2.3125 15 2 C17.3125 3.4375 17.3125 3.4375 19 5 C18.67 6.98 18.34 8.96 18 11 C18.5775 11.2475 19.155 11.495 19.75 11.75 C26.12298451 15.29054695 30.99676339 22.20503826 33.375 29 C35.4170231 38.8017109 35.56949095 50.34883106 30 59 C28.77122689 60.2708724 27.52044574 61.52078577 26.25 62.75 C22.64119857 66.47422152 22.54710819 69.38991954 22.5625 74.5 C22.706875 76.645 22.85125 78.79 23 81 C14.42 81 5.84 81 -3 81 C-3.33 79.68 -3.66 78.36 -4 77 C-5.27875 76.773125 -6.5575 76.54625 -7.875 76.3125 C-17.34840524 74.15607338 -24.99811795 69.70908406 -31 62 C-36.89589595 52.11484111 -38.46231059 42.38250804 -37 31 C-35.50117762 26.61421511 -33.46987558 22.90317125 -31 19 C-29.42367215 16.17727338 -28.99016605 14.89182651 -28.6875 11.5625 C-27.84901346 7.21761521 -26.35529078 5.78243626 -23 3 C-20.08963706 1.54481853 -17.39595074 2.02817336 -14.19140625 2.16015625 C-8.7459398 1.76218098 -6.0953029 -1.14465782 0 0 Z M12 6 C12.33 6.66 12.66 7.32 13 8 C13.66 8 14.32 8 15 8 C15 7.34 15 6.68 15 6 C14.01 6 13.02 6 12 6 Z M9 13 C10.32 15.31 11.64 17.62 13 20 C13.99 19.34 14.98 18.68 16 18 C15.67 17.01 15.34 16.02 15 15 C11.99152582 13.77479736 11.99152582 13.77479736 9 13 Z M21 21 C19.02 22.65 17.04 24.3 15 26 C15.49756092 28.75641416 15.49756092 28.75641416 17 31 C17.07271741 33.35313555 17.08370868 35.70833668 17.0625 38.0625 C17.05347656 39.35285156 17.04445312 40.64320312 17.03515625 41.97265625 C17.02355469 42.97167969 17.01195312 43.97070312 17 45 C14.56212615 44.8590651 12.12482147 44.71245458 9.6875 44.5625 C8.99720703 44.52318359 8.30691406 44.48386719 7.59570312 44.44335938 C4.52838465 44.25072585 1.93031848 43.97677283 -1 43 C-1.5347998 43.5347998 -2.06959961 44.06959961 -2.62060547 44.62060547 C-8.74707031 50.74707031 -14.87353516 56.87353516 -21 63 C-15.88765763 67.63306027 -11.25426588 70.03502977 -4.37109375 69.9609375 C-0.90120453 69.71583937 2.54512244 69.40274556 6 69 C6 68.67 6 68.34 6 68 C3.36 68 0.72 68 -2 68 C-1.67 66.68 -1.34 65.36 -1 64 C2.465 63.505 2.465 63.505 6 63 C6 62.34 6 61.68 6 61 C3.69 61 1.38 61 -1 61 C-1 59.35 -1 57.7 -1 56 C5.93 56 12.86 56 20 56 C20.33 56.99 20.66 57.98 21 59 C25.9367163 54.91444168 27.66817974 50.13030435 28.32421875 43.94140625 C28.58935843 36.17921366 27.86448267 28.18729148 22.36328125 22.2265625 C21.91339844 21.82179688 21.46351562 21.41703125 21 21 Z M-26 23 C-31.0456339 30.82073255 -32.18631054 37.78247211 -31 47 C-29.97301872 50.51730068 -28.67943125 53.74610196 -27 57 C-22.62124941 57 -21.77748035 56.35332403 -18.73828125 53.43164062 C-18.24714844 52.93857422 -17.75601562 52.44550781 -17.25 51.9375 C-16.74339844 51.47150391 -16.23679687 51.00550781 -15.71484375 50.52539062 C-12.84167259 47.67932486 -12.01927754 46.27640597 -11.734375 42.19140625 C-11.82203125 41.13824219 -11.9096875 40.08507812 -12 39 C-11 38 -11 38 -7.4375 37.9375 C-6.303125 37.958125 -5.16875 37.97875 -4 38 C-4 37.34 -4 36.68 -4 36 C-7.35627498 33.76248335 -10.10795912 34.0216924 -14.0390625 34.109375 C-17.04684057 33.94161049 -18.70766096 32.89936663 -21 31 C-22.6875 28.5 -22.6875 28.5 -24 26 C-24.66 25.01 -25.32 24.02 -26 23 Z " fill="#039CDA" transform="translate(39,4)"/>
<path d="M0 0 C0.84498047 -0.00128906 1.68996094 -0.00257812 2.56054688 -0.00390625 C3.44935547 -0.00003906 4.33816406 0.00382812 5.25390625 0.0078125 C6.13884766 0.00394531 7.02378906 0.00007813 7.93554688 -0.00390625 C8.78181641 -0.00261719 9.62808594 -0.00132813 10.5 0 C11.27915771 0.00112793 12.05831543 0.00225586 12.86108398 0.00341797 C14.81640625 0.1328125 14.81640625 0.1328125 16.81640625 1.1328125 C16.85882348 3.46576025 16.85733562 5.79983817 16.81640625 8.1328125 C14.51630852 10.43291023 8.96849959 9.31818615 5.87890625 9.3203125 C4.94626953 9.33255859 4.01363281 9.34480469 3.05273438 9.35742188 C2.16134766 9.35935547 1.26996094 9.36128906 0.3515625 9.36328125 C-0.46948975 9.36739014 -1.29054199 9.37149902 -2.13647461 9.37573242 C-4.18359375 9.1328125 -4.18359375 9.1328125 -6.18359375 7.1328125 C-5.45656294 0.00791052 -5.45656294 0.00791052 0 0 Z " fill="#009EDF" transform="translate(43.18359375,49.8671875)"/>
</svg>
