<?xml version="1.0" encoding="UTF-8"?>
<svg version="1.1" xmlns="http://www.w3.org/2000/svg" width="75" height="89">
<path d="M0 0 C3.0625 0.1875 3.0625 0.1875 5.0625 2.1875 C5.2578125 4.7890625 5.2578125 4.7890625 5.1875 7.8125 C5.16945313 8.81539062 5.15140625 9.81828125 5.1328125 10.8515625 C5.10960938 11.62242188 5.08640625 12.39328125 5.0625 13.1875 C6.3825 13.5175 7.7025 13.8475 9.0625 14.1875 C9.0625 36.2975 9.0625 58.4075 9.0625 81.1875 C-1.5490625 81.2184375 -1.5490625 81.2184375 -12.375 81.25 C-15.72869751 81.26365601 -15.72869751 81.26365601 -19.15014648 81.27758789 C-20.91129496 81.28050696 -22.67244411 81.28305554 -24.43359375 81.28515625 C-25.35692505 81.29027222 -26.28025635 81.29538818 -27.23156738 81.30065918 C-28.10446411 81.30078003 -28.97736084 81.30090088 -29.87670898 81.30102539 C-30.63837875 81.303246 -31.40004852 81.30546661 -32.18479919 81.30775452 C-33.9375 81.1875 -33.9375 81.1875 -34.9375 80.1875 C-35.3994843 75.34872463 -35.55132444 70.51081659 -35.67211914 65.65283203 C-35.72361635 64.02267911 -35.79844029 62.39307929 -35.89770508 60.76513672 C-36.68706988 47.57857587 -36.68706988 47.57857587 -33.73382568 43.54248047 C-30.53436908 40.42361636 -26.87630827 38.28343858 -22.9375 36.1875 C-21.35477399 34.60477399 -21.59014253 32.80715997 -21.375 30.625 C-21.230625 29.160625 -21.08625 27.69625 -20.9375 26.1875 C-23.9075 26.1875 -26.8775 26.1875 -29.9375 26.1875 C-29.916875 27.651875 -29.89625 29.11625 -29.875 30.625 C-29.85357993 32.14582518 -29.86570036 33.66821962 -29.9375 35.1875 C-30.9375 36.1875 -30.9375 36.1875 -32.79516602 36.30102539 C-33.58592529 36.29578857 -34.37668457 36.29055176 -35.19140625 36.28515625 C-36.04541016 36.28193359 -36.89941406 36.27871094 -37.77929688 36.27539062 C-38.67712891 36.26701172 -39.57496094 36.25863281 -40.5 36.25 C-41.40169922 36.24548828 -42.30339844 36.24097656 -43.23242188 36.23632812 C-45.46751314 36.22450225 -47.70247437 36.2080222 -49.9375 36.1875 C-49.90443723 38.94072741 -49.83724574 41.68590371 -49.75 44.4375 C-49.74419922 45.21480469 -49.73839844 45.99210937 -49.73242188 46.79296875 C-49.64641297 49.02920033 -49.51690511 51.02391995 -48.9375 53.1875 C-48.10734375 53.81011719 -47.2771875 54.43273438 -46.421875 55.07421875 C-43.9375 57.1875 -43.9375 57.1875 -43.46362305 59.40380859 C-43.30074383 62.20122705 -43.30501924 64.94887812 -43.375 67.75 C-43.36404297 68.70841797 -43.35308594 69.66683594 -43.34179688 70.65429688 C-43.39752265 75.95567601 -43.39752265 75.95567601 -43.9375 78.1875 C-46.88655759 80.95876532 -48.91161595 81.61886298 -52.9375 81.625 C-53.783125 81.64433594 -54.62875 81.66367188 -55.5 81.68359375 C-58.96221813 80.97894359 -59.9720392 80.1512901 -61.9375 77.1875 C-62.54893517 73.84369007 -62.54117992 70.57878761 -62.5 67.1875 C-62.52384766 66.28515625 -62.54769531 65.3828125 -62.57226562 64.453125 C-62.56665667 61.9253568 -62.49504243 59.65435955 -61.9375 57.1875 C-61.11765625 56.55328125 -60.2978125 55.9190625 -59.453125 55.265625 C-56.74213792 53.46377893 -56.74213792 53.46377893 -56.43334961 50.83398438 C-56.22168325 47.86097628 -56.14202022 44.9179301 -56.125 41.9375 C-56.09986328 40.90625 -56.07472656 39.875 -56.04882812 38.8125 C-55.98998438 36.27045011 -55.95368493 33.73012084 -55.9375 31.1875 C-52.62755287 29.53252644 -48.94627 30.08665665 -45.3125 30.125 C-44.51070312 30.12951172 -43.70890625 30.13402344 -42.8828125 30.13867188 C-40.90100994 30.15046832 -38.91924567 30.16840395 -36.9375 30.1875 C-36.97875 28.90875 -37.02 27.63 -37.0625 26.3125 C-37.1328125 24.1328125 -37.1328125 24.1328125 -36.9375 22.1875 C-34.9375 20.1875 -34.9375 20.1875 -31.6796875 19.9921875 C-30.40351562 20.01539062 -29.12734375 20.03859375 -27.8125 20.0625 C-25.89050781 20.08957031 -25.89050781 20.08957031 -23.9296875 20.1171875 C-22.44855469 20.15199219 -22.44855469 20.15199219 -20.9375 20.1875 C-20.9375 18.2075 -20.9375 16.2275 -20.9375 14.1875 C-18.9575 13.8575 -16.9775 13.5275 -14.9375 13.1875 C-14.6075 11.5375 -14.2775 9.8875 -13.9375 8.1875 C-12.2875 8.1875 -10.6375 8.1875 -8.9375 8.1875 C-8.4425 10.1675 -8.4425 10.1675 -7.9375 12.1875 C-6.6175 12.5175 -5.2975 12.8475 -3.9375 13.1875 C-3.94910156 12.33285156 -3.96070313 11.47820313 -3.97265625 10.59765625 C-3.98167969 9.49292969 -3.99070313 8.38820313 -4 7.25 C-4.01160156 6.14785156 -4.02320313 5.04570312 -4.03515625 3.91015625 C-3.89929432 0.12232574 -3.80732768 0.24302092 0 0 Z " fill="#009EDF" transform="translate(63.9375,3.8125)"/>
</svg>
